<?xml version="1.0" encoding="UTF-8"?>
<svg xmlns="http://www.w3.org/2000/svg" xmlns:xlink="http://www.w3.org/1999/xlink" width="16px" height="18px" viewBox="0 0 16 18" version="1.1">
<g id="surface1">
<path style=" stroke:none;fill-rule:nonzero;fill:rgb(100%,100%,100%);fill-opacity:1;" d="M 15.140625 8.992188 L 14.679688 14.523438 C 14.5625 15.953125 12.394531 15.757812 12.515625 14.351562 L 12.871094 10.042969 L 11.402344 10.125 C 11.765625 10.851562 11.96875 11.667969 11.96875 12.535156 C 11.96875 13.980469 11.394531 15.300781 10.457031 16.277344 L 9.054688 14.894531 C 11.121094 12.65625 9.519531 9.019531 6.410156 9.019531 C 5.484375 9.019531 4.644531 9.367188 4.011719 9.933594 L 2.605469 8.550781 C 3.394531 7.820312 4.394531 7.316406 5.515625 7.136719 L 8.203125 4.125 L 6.683594 3.25 L 4.839844 4.867188 C 3.769531 5.8125 2.316406 4.21875 3.394531 3.273438 L 5.820312 1.140625 C 6.171875 0.828125 6.683594 0.78125 7.089844 1.011719 C 7.089844 1.011719 12.0625 3.855469 12.070312 3.863281 C 12.648438 4.21875 12.8125 5.128906 12.289062 5.710938 L 10.203125 8.050781 L 13.992188 7.84375 C 14.652344 7.804688 15.191406 8.351562 15.140625 8.992188 Z M 12.820312 3.578125 C 13.824219 3.578125 14.640625 2.777344 14.640625 1.789062 C 14.640625 0.800781 13.824219 0 12.820312 0 C 11.816406 0 11.003906 0.800781 11.003906 1.789062 C 11.003906 2.777344 11.816406 3.578125 12.820312 3.578125 Z M 6.414062 16.046875 C 3.535156 16.046875 1.863281 12.863281 3.460938 10.5625 L 2.042969 9.164062 C 1.300781 10.089844 0.855469 11.261719 0.855469 12.53125 C 0.855469 17.125 6.238281 19.609375 9.835938 16.835938 L 8.417969 15.441406 C 7.847656 15.824219 7.15625 16.046875 6.414062 16.046875 Z M 6.414062 16.046875 "/>
</g>
</svg>
