<svg xmlns="http://www.w3.org/2000/svg" viewBox="0 0 256.16 448.71"><title>svijetla-pozadina</title><g id="Layer_2" data-name="Layer 2"><g id="Isolation_Mode" data-name="Isolation Mode"><path d="M191.46,319.68H64c-1.14-34.6-16.87-64.11-31.51-94-10.4-21.21-21.23-42.21-27.75-65.08C-15.68,89,32.19,13.68,105.7,1.78c69.47-11.24,133.16,31.78,147.73,99.8,5.6,26.11,2.4,51.47-8,75.73-8.6,20-18.3,39.53-27.73,59.16s-18.81,39.37-23.11,60.94C193.12,304.57,192.51,311.89,191.46,319.68Z" style="fill:#fff"/><path d="M128,383.88H175.4c9.3,0,16.3,6.33,16.55,15,.28,9.79-5.85,16.31-15.57,17.15a7.37,7.37,0,0,0-5,3.4c-8,15.71-20.37,26.26-37.73,28.81-14.25,2.1-27.45-2.92-37.85-13-4.78-4.63-7.88-11-12-16.36-1-1.32-2.75-2.74-4.27-2.87-9.74-.83-15.91-7.42-15.58-17.12.29-8.71,7.25-15,16.56-15H128Z" style="fill:#fff"/><path d="M128.47,335.89H175.4c9.52,0,16.44,6.46,16.58,15.51.16,9.53-6.46,16.47-16.11,16.49q-47.93.11-95.85,0c-9.34,0-16.12-6.89-16.12-16s6.87-16,16.14-16q24.21,0,48.43,0Z" style="fill:#fff"/></g></g></svg>