<svg xmlns="http://www.w3.org/2000/svg" width="36" height="26" viewBox="0 0 36 26">
  <path id="Path_80" data-name="Path 80" d="M2.25,10a.25.25,0,0,0-.25.25v5.5a.25.25,0,0,0,.25.25h31.5a.25.25,0,0,0,.25-.25v-5.5a.25.25,0,0,0-.25-.25ZM34,7h1a1,1,0,0,1,1,1V18a1,1,0,0,1-1,1H34v5a2,2,0,0,1-2,2H4a2,2,0,0,1-2-2V19H1a1,1,0,0,1-1-1V8A1,1,0,0,1,1,7H2V2.05a2,2,0,0,1,2-2L29,0h3a2,2,0,0,1,2,2ZM3.8,19v5a.2.2,0,0,0,.2.2H32a.2.2,0,0,0,.2-.2V19H31v3a1,1,0,0,1-1,1H6a1,1,0,0,1-1-1V19Zm0-12H5V4.05a1,1,0,0,1,1-1L26,3h4a1,1,0,0,1,1,1V7h1.2V2a.2.2,0,0,0-.2-.2H29L4,1.85a.2.2,0,0,0-.2.2Z" fill="#fff"/>
</svg>
