<svg xmlns="http://www.w3.org/2000/svg" viewBox="0 0 474.07 433.9"><title>velicina-slova</title><g id="Layer_2" data-name="Layer 2"><g id="Isolation_Mode" data-name="Isolation Mode"><path d="M0,432.93c3.41-11.82,6.6-23,9.85-34.09Q67.26,202.73,124.54,6.58c1.47-5,3.4-6.71,8.76-6.57,19.15.49,38.32.44,57.48.41,3.28,0,4.93.69,5.93,4.18Q257,216.19,317.57,427.71c.45,1.56.74,3.17,1.2,5.22H290c-13.16,0-26.34-.27-39.49.16-4.72.15-5.79-2-6.83-5.74q-14.86-53-29.94-105.86c-.41-1.42-.88-2.83-1.4-4.51H175.75c-21,0-42,.15-63-.12-4.38-.06-5.92,1.47-7.05,5.44C95.54,357.89,85.14,393.4,74.86,429c-.62,2.14-.83,4.05-3.93,4C47.62,432.89,24.3,432.93,0,432.93ZM126.32,252H194c-11.06-39-22-77.43-32.9-115.89l-1.15.09C148.8,174.61,137.63,213,126.32,252Z" style="fill:#fff"/><path d="M393.93,0l79,82.23H425.69V179H362.17V82.29H314.91Z" style="fill:#fff"/><path d="M363.08,351.77V255.1h63.51v96.45h47.48L395,433.9l-78.9-82.13Z" style="fill:#fff"/></g></g></svg>