<svg xmlns="http://www.w3.org/2000/svg" viewBox="0 0 176.77 189.99"><title>sivi-tonovi</title><g id="Layer_2" data-name="Layer 2"><g id="Isolation_Mode" data-name="Isolation Mode"><path d="M98.61,53.34c0,14,.07,28-.06,42,0,2.87.8,4.35,3.53,5.61,12.55,5.79,19.21,15.9,19.13,29.62-.06,13.36-6.93,23-18.87,28.84-2.79,1.37-4,2.77-3.84,5.93.28,4.65.19,9.33.08,14-.14,6.4-4.38,10.8-10.08,10.69-5.48-.11-9.53-4.45-9.68-10.61-.13-5,.21-10-.13-15A6.11,6.11,0,0,0,75.92,160C63.67,154,56.31,144.4,56.2,130.6c-.11-14.18,7.06-24.17,19.86-30.33,1.38-.66,2.6-3.23,2.61-4.92.17-26.48.13-53,.13-79.45,0-1.66,0-3.33,0-5C79,4.44,83,0,88.68,0s9.86,4.41,9.9,10.86C98.67,25,98.61,39.18,98.61,53.34ZM88.55,143.05a12.88,12.88,0,0,0,13.12-12.88,13,13,0,0,0-25.95-.29A12.89,12.89,0,0,0,88.55,143.05Z" style="fill:#fff"/><path d="M22.7,28.5c0-6.21-.08-12,0-17.87C22.84,4.24,26.65.1,32.27,0s9.78,4,10,10.18c.22,5.16-.13,10.35.23,15.49A6.12,6.12,0,0,0,45.35,30C57.87,36.18,65,46,65,60c-.06,13.84-7.06,23.67-19.62,29.28-3.12,1.39-3,3.45-3,6q0,40.49,0,81c0,1.16.05,2.33,0,3.5-.4,6.17-4.45,10.3-10,10.25s-9.54-4.2-9.59-10.55c-.11-12.5-.05-25-.05-37.49,0-15.83.07-31.66-.09-47.49,0-1.57-1.06-4-2.31-4.56C7.39,83.64-.25,73.68,0,59.26s7.92-24.32,21.26-29.8A9.89,9.89,0,0,0,22.7,28.5ZM19.72,60a13,13,0,1,0,25.92-.63,12.76,12.76,0,0,0-13-12.42A12.78,12.78,0,0,0,19.72,60Z" style="fill:#fff"/><path d="M134.52,28.5c0-6.21-.08-12,0-17.87C134.66,4.24,138.47.1,144.09,0s9.79,4,10,10.18c.21,5.16-.14,10.35.22,15.49A6.12,6.12,0,0,0,157.17,30c12.52,6.16,19.66,15.93,19.6,30-.06,13.84-7.06,23.67-19.62,29.28-3.12,1.39-3,3.45-3,6q0,40.49,0,81c0,1.16.05,2.33,0,3.5-.4,6.17-4.45,10.3-10,10.25s-9.54-4.2-9.59-10.55c-.11-12.5-.05-25-.05-37.49,0-15.83.07-31.66-.09-47.49,0-1.57-1.06-4-2.31-4.56-12.88-6.23-20.53-16.19-20.27-30.61s7.92-24.32,21.26-29.8A9.89,9.89,0,0,0,134.52,28.5Zm-3,31.47a13,13,0,1,0,25.92-.63,13,13,0,0,0-25.92.63Z" style="fill:#fff"/></g></g></svg>