<svg xmlns="http://www.w3.org/2000/svg" viewBox="0 0 521.33 576.33"><title>fotografije-u-sivim-tonovima</title><g id="Layer_2" data-name="Layer 2"><g id="DESIGNED_BY_FREEPIK" data-name="DESIGNED BY FREEPIK"><path d="M326.54,164.43c-37.07.1-67.49,30.48-67.54,67.45a67.93,67.93,0,0,0,67.76,67.84c37.19,0,67.84-30.9,67.57-68.06S363.5,164.33,326.54,164.43Zm-.19,99.48a31.91,31.91,0,0,1,.29-63.81c17.17,0,31.93,14.66,32,31.81A32.21,32.21,0,0,1,326.35,263.91Z" style="fill:#fff"/><path d="M422,0H99.33A99.44,99.44,0,0,0,0,99.33V477a99.44,99.44,0,0,0,99.33,99.33H422A99.44,99.44,0,0,0,521.33,477V99.33A99.44,99.44,0,0,0,422,0Zm39.33,311.54Q405.05,349.2,348.69,386.7c-15.09,10-31.53,7.86-44.94-5.66Q263,339.94,222.28,298.7c-28.71-29.14-64.46-31-95.52-5Q93.43,321.6,60,349.34v-250A39.38,39.38,0,0,1,99.33,60H422a39.37,39.37,0,0,1,39.33,39.33Z" style="fill:#fff"/></g></g></svg>