<svg xmlns="http://www.w3.org/2000/svg" viewBox="0 0 360 178.67"><title>istakni-poveznice</title><g id="Layer_2" data-name="Layer 2"><g id="DESIGNED_BY_FREEPIK" data-name="DESIGNED BY FREEPIK"><path d="M184.87,72.27a4.61,4.61,0,0,0,1.83-2.44,15,15,0,0,0,.7-2.87,27,27,0,0,0,.15-3.07V51.62q0-5.9-5.82-5.9H176V73.13h5.59A5.74,5.74,0,0,0,184.87,72.27Z" style="fill:#fff"/><path d="M181,92.38H176v35.87c1.25.1,2.15.16,2.72.16q10.63,0,10.64-9.16V103.8c0-3.94-.66-6.82-2-8.66S183.93,92.38,181,92.38Z" style="fill:#fff"/><path d="M0,0V178.67H360V0ZM114.49,150.22l-1.94-18.63H98.74L97,150.22H70.48l14-123.67h42.78l13.66,123.67ZM215,126.93a37.63,37.63,0,0,1-4.7,12.46,20.44,20.44,0,0,1-9.28,8.15,35.68,35.68,0,0,1-14.71,2.68h-37V26.55h37q14.52,0,21.5,6.4t7,21.86v5.35c0,.88-.09,2.26-.27,4.12a21.85,21.85,0,0,1-.78,4.38,41.3,41.3,0,0,1-1.51,3.93,12.09,12.09,0,0,1-2.48,3.8A21,21,0,0,1,206,79.26a17.6,17.6,0,0,1-5.2,2.1,17.74,17.74,0,0,1,7.29,3.49,19.15,19.15,0,0,1,4.59,5.24,24.71,24.71,0,0,1,2.44,6.8,44.17,44.17,0,0,1,1,6.75c.1,1.81.15,4,.15,6.52A89.8,89.8,0,0,1,215,126.93Zm77-6.6q0,16.15-9.16,23.72t-25.62,7.57q-14.59,0-23.76-8.35t-9.16-23.71V62.18q0-18.39,8.12-27.52t25.42-9.12a46.59,46.59,0,0,1,13.05,1.74,33.5,33.5,0,0,1,10.59,5.17,23.45,23.45,0,0,1,7.26,9,29.45,29.45,0,0,1,2.64,12.78V76h-27V61.64q0-11.1-6.52-11.1c-2.59,0-4.29.81-5.12,2.44a15.22,15.22,0,0,0-1.24,6.79v58.47a12.26,12.26,0,0,0,1.74,6.6,5.28,5.28,0,0,0,4.62,2.79,6.1,6.1,0,0,0,4.58-2.06c1.3-1.37,1.94-3.81,1.94-7.33V97H292Z" style="fill:#fff"/><polygon points="104.33 49.76 100.67 109.08 110.46 109.08 106.81 49.76 104.33 49.76" style="fill:#fff"/></g></g></svg>