<svg xmlns="http://www.w3.org/2000/svg" viewBox="0 0 262.39 261.69"><title>negativni-kontrast</title><g id="Layer_2" data-name="Layer 2"><g id="DESIGNED_BY_FREEPIK" data-name="DESIGNED BY FREEPIK"><path d="M130.82,0H233.53a29.07,29.07,0,0,1,28.78,27.82c.14,3.75.05,7.5.05,11.25q0,96,0,191.92c0,15.61-10.26,27.93-25.19,30.35a34.81,34.81,0,0,1-5.6.33q-100.45,0-200.92,0C12.43,261.68,0,249.29,0,231.1Q0,130.45,0,29.8C0,15.32,8.71,3.86,22.18.59A28.11,28.11,0,0,1,28.86,0Q79.83,0,130.82,0Zm.45,57.77c-15.48.39-29.9,4.27-42.56,13.42a73.16,73.16,0,0,0-9.9,110.46c14.19,14.69,31.85,22,52.49,21.48v29.24H232.65V29H131.27Z" style="fill:#fff"/><path d="M131.16,203.27q0-72.78,0-145.58c13,.62,25.59,3.13,36.79,10.1,26.72,16.62,38.45,41,35.12,72A71.13,71.13,0,0,1,131.16,203.27Z" style="fill:#fff"/></g></g></svg>