<svg xmlns="http://www.w3.org/2000/svg" viewBox="0 0 595.56 502"><title>reset</title><g id="Layer_2" data-name="Layer 2"><g id="Layer_1-2" data-name="Layer 1"><path d="M522.05,73.52A249.36,249.36,0,0,0,344.56,0a35,35,0,0,0,0,70c99.81,0,181,81.2,181,181s-81.19,181-181,181c-97.66,0-177.49-77.75-180.87-174.6h79.39c6.68-1.2,11.29-5.42,13.91-12.29,3.33-8.74,1.21-16.3-4.78-23.11-16.66-19-33-38.21-50-56.89C185.7,147,168.72,129.3,151.74,111.64c-13.55-14.08-30.31-15.39-42.63-2.13C74.38,146.88,40.24,184.8,5.94,222.57c-6.4,7-7.61,15.27-3.72,23.92,2.88,6.42,7.45,9.71,13.48,10.91H93.64A251,251,0,1,0,522.05,73.52Z" style="fill:#fff"/></g></g></svg>