<svg xmlns="http://www.w3.org/2000/svg" viewBox="0 0 225.33 170.68"><title>podcrtaj-poveznice</title><g id="Layer_2" data-name="Layer 2"><g id="DESIGNED_BY_FREEPIK" data-name="DESIGNED BY FREEPIK"><path d="M58.23,1,71.89,124.68H45.5l-2-18.63H29.74L28,124.68H1.48L15.45,1ZM37.81,24.22H35.33L31.68,83.54h9.78Z" style="fill:#fff"/><path d="M80.28,124.68V1h37q14.52,0,21.5,6.4t7,21.86v5.36q0,1.32-.27,4.11a22,22,0,0,1-.78,4.39,41.26,41.26,0,0,1-1.51,3.92,12.09,12.09,0,0,1-2.48,3.8A20.59,20.59,0,0,1,137,53.72a17.34,17.34,0,0,1-5.2,2.1,17.85,17.85,0,0,1,7.3,3.49,19.27,19.27,0,0,1,4.58,5.24,24.83,24.83,0,0,1,2.44,6.8,44.17,44.17,0,0,1,1,6.75q.15,2.73.15,6.52A89.65,89.65,0,0,1,146,101.39a37.55,37.55,0,0,1-4.7,12.46A20.52,20.52,0,0,1,132,122a35.85,35.85,0,0,1-14.71,2.67ZM107,47.59h5.59a5.82,5.82,0,0,0,3.3-.85,4.67,4.67,0,0,0,1.83-2.45,15,15,0,0,0,.7-2.87,26.88,26.88,0,0,0,.15-3.07V26.09c0-3.94-1.94-5.9-5.82-5.9H107Zm0,19.25v35.87c1.25.11,2.15.16,2.72.16q10.64,0,10.64-9.16V78.26q0-5.9-2-8.66T112,66.84Z" style="fill:#fff"/><path d="M223,71.43V94.79q0,16.15-9.16,23.72t-25.62,7.57q-14.59,0-23.76-8.34T155.27,94V36.64q0-18.39,8.12-27.52T188.81,0a46.22,46.22,0,0,1,13.05,1.75,33.27,33.27,0,0,1,10.59,5.16,23.48,23.48,0,0,1,7.26,9,29.38,29.38,0,0,1,2.64,12.77V50.46h-27V36.1q0-11.1-6.52-11.1c-2.59,0-4.29.81-5.12,2.44a15.26,15.26,0,0,0-1.24,6.8V92.7a12.26,12.26,0,0,0,1.74,6.6,5.28,5.28,0,0,0,4.62,2.79,6.09,6.09,0,0,0,4.58-2c1.3-1.38,1.94-3.82,1.94-7.34V71.43Z" style="fill:#fff"/><rect y="144.46" width="225.33" height="26.22" style="fill:#fff"/></g></g></svg>